<?xml version="1.0" standalone="no"?>
<!DOCTYPE svg PUBLIC "-//W3C//DTD SVG 20010904//EN"
 "http://www.w3.org/TR/2001/REC-SVG-20010904/DTD/svg10.dtd">
<svg version="1.0" xmlns="http://www.w3.org/2000/svg"
 width="742.000000pt" height="742.000000pt" viewBox="0 0 742.000000 742.000000"
 preserveAspectRatio="xMidYMid meet">
<metadata>
Created by potrace 1.11, written by Peter Selinger 2001-2013
</metadata>
<g transform="translate(0.000000,742.000000) scale(0.100000,-0.100000)"
fill="#000000" stroke="none">
<path d="M2830 7349 c-176 -15 -552 -77 -568 -94 -7 -7 -10 -5 103 -64 284
-151 562 -354 807 -589 610 -587 988 -1329 1103 -2166 l16 -118 -23 -17 c-53
-38 -152 -33 -513 25 -258 42 -285 41 -495 -11 l-145 -37 -210 5 c-331 8 -513
47 -709 152 -89 47 -127 73 -143 98 -30 48 -102 92 -181 112 -167 42 -205 57
-234 87 -23 24 -28 39 -26 67 3 32 7 37 52 52 60 22 82 41 111 99 13 25 44 69
69 98 25 30 46 56 46 58 0 3 -11 26 -25 52 -32 61 -33 86 -2 76 29 -9 92 -41
140 -71 20 -13 37 -20 37 -17 0 16 -52 94 -72 108 -27 19 -26 61 3 215 11 58
16 108 12 112 -5 4 -49 28 -99 53 -106 53 -234 97 -352 122 -97 21 -87 27
-153 -102 l-42 -82 -49 21 c-26 11 -51 17 -54 14 -3 -3 -8 -23 -11 -44 -6 -46
29 -106 65 -111 13 -2 22 -7 20 -10 -62 -115 -67 -188 -23 -292 37 -85 39
-172 6 -247 l-23 -52 -28 21 c-37 27 -147 35 -241 19 -78 -14 -78 -14 -149
-146 -23 -44 -73 -134 -111 -200 -149 -263 -234 -469 -246 -589 -7 -80 6 -122
83 -252 32 -55 67 -117 78 -139 28 -56 134 -175 156 -175 17 0 18 -9 17 -99
l-2 -99 47 -93 c27 -52 93 -154 148 -228 56 -73 112 -156 127 -185 14 -28 76
-132 138 -231 136 -217 165 -268 205 -363 l31 -73 -248 -467 c-150 -282 -260
-478 -278 -495 -16 -15 -24 -27 -17 -27 8 0 3 -18 -14 -51 l-26 -52 37 -37
c35 -36 42 -39 106 -42 61 -3 69 -1 69 15 0 20 20 17 70 -8 49 -25 148 -38
257 -33 135 7 147 11 139 52 -7 38 -53 79 -106 95 -22 6 -40 13 -40 15 0 1 22
39 48 83 40 67 156 310 218 458 l16 39 32 -53 c164 -279 350 -526 461 -611 66
-51 78 -49 142 26 26 30 50 54 53 54 3 0 12 -16 19 -35 7 -19 23 -48 36 -63
l24 -29 -82 -46 c-270 -150 -546 -263 -846 -348 -57 -16 -106 -31 -109 -34
-11 -11 305 -144 485 -204 937 -313 1952 -253 2838 168 169 81 281 144 465
267 855 568 1421 1443 1584 2449 209 1291 -299 2595 -1334 3426 -589 472
-1311 758 -2074 819 -147 11 -475 11 -616 -1z m-1875 -3372 c-18 -87 -52 -187
-64 -187 -29 0 -64 76 -81 175 l-12 71 48 65 c27 35 65 87 84 116 l35 51 3
-107 c2 -68 -3 -134 -13 -184z m2799 208 c98 -37 217 -56 389 -62 l157 -6 2
-76 c17 -807 -240 -1598 -729 -2244 -189 -250 -457 -520 -684 -690 l-36 -27
-59 32 c-32 18 -74 42 -92 54 -18 13 -49 28 -69 35 -20 6 -50 28 -67 48 -17
19 -101 115 -188 212 -185 208 -217 255 -293 433 l-58 136 16 37 c40 93 53
208 37 323 -14 101 -43 192 -108 337 -100 223 -189 491 -232 704 -28 136 -28
342 0 432 25 79 78 161 143 216 74 63 70 63 187 19 148 -56 325 -103 465 -123
99 -14 161 -16 355 -11 129 4 272 9 318 12 l82 6 0 59 0 59 124 0 c84 0 127 4
132 12 4 6 7 30 6 54 0 39 2 43 26 47 44 8 110 -3 176 -28z"/>
</g>
</svg>
